<svg width="36" height="36" viewBox="0 0 36 36" fill="none" xmlns="http://www.w3.org/2000/svg">
<rect width="36" height="36" rx="5" fill="#2CCF54"/>
<path d="M30.1091 16.0759C30.1091 10.37 24.457 5.72783 17.509 5.72783C10.562 5.72783 4.90915 10.37 4.90915 16.0759C4.90915 21.1913 9.39172 25.4753 15.4467 26.2854C15.8571 26.3749 16.4156 26.5592 16.5569 26.9142C16.6839 27.2366 16.64 27.7416 16.5974 28.0672C16.5974 28.0672 16.4496 28.9671 16.4177 29.1587C16.3629 29.4812 16.1646 30.4196 17.509 29.8461C18.8539 29.2726 24.7655 25.522 27.4089 22.4427C29.235 20.4162 30.1091 18.3596 30.1091 16.0759Z" fill="white"/>
<path d="M14.9492 13.3099H14.0654C13.9299 13.3099 13.8197 13.421 13.8197 13.5575V19.1074C13.8197 19.2441 13.9299 19.355 14.0654 19.355H14.9492C15.0847 19.355 15.1946 19.2441 15.1946 19.1074V13.5575C15.1946 13.421 15.0847 13.3099 14.9492 13.3099Z" fill="#2CCF54"/>
<path d="M21.0323 13.3099H20.1485C20.013 13.3099 19.9031 13.421 19.9031 13.5575V16.8547L17.3872 13.42C17.3407 13.3495 17.2652 13.3146 17.1829 13.3099H16.2993C16.1638 13.3099 16.0536 13.421 16.0536 13.5575V19.1074C16.0536 19.2441 16.1638 19.355 16.2993 19.355H17.1829C17.3186 19.355 17.4285 19.2441 17.4285 19.1074V15.8112L19.9476 19.2502C19.9928 19.315 20.0696 19.355 20.1485 19.355H21.0323C21.1681 19.355 21.2778 19.2441 21.2778 19.1074V13.5575C21.2778 13.421 21.1681 13.3099 21.0323 13.3099Z" fill="#2CCF54"/>
<path d="M12.8187 17.9652H10.4173V13.5578C10.4173 13.4208 10.3074 13.3097 10.1721 13.3097H9.28807C9.15257 13.3097 9.04266 13.4208 9.04266 13.5578V19.1067C9.04266 19.2414 9.15208 19.355 9.28783 19.355H12.8187C12.9542 19.355 13.0636 19.2436 13.0636 19.1067V18.2133C13.0636 18.0763 12.9542 17.9652 12.8187 17.9652Z" fill="#2CCF54"/>
<path d="M25.913 14.6995C26.0485 14.6995 26.1579 14.5886 26.1579 14.4514V13.558C26.1579 13.421 26.0485 13.3097 25.913 13.3097H22.3823C22.2467 13.3097 22.1369 13.4231 22.1369 13.5578V19.1069C22.1369 19.2412 22.2464 19.355 22.3818 19.355H25.913C26.0485 19.355 26.1579 19.2436 26.1579 19.1069V18.2133C26.1579 18.0765 26.0485 17.9652 25.913 17.9652H23.5118V17.0271H25.913C26.0485 17.0271 26.1579 16.916 26.1579 16.779V15.8856C26.1579 15.7487 26.0485 15.6373 25.913 15.6373H23.5118V14.6995H25.913Z" fill="#2CCF54"/>
</svg>
