<svg width="131" height="130" viewBox="0 0 131 130" fill="none" xmlns="http://www.w3.org/2000/svg">
<g filter="url(#filter0_d)">
<rect x="30.625" y="15" width="70" height="70" rx="15" fill="white" fill-opacity="0.75"/>
<g clip-path="url(#clip0)">
<path d="M53.625 51C56.454 51 59.0802 48.671 59.625 46H74.625C76.5636 46 78.625 44.9386 78.625 43V34C78.625 32.0614 76.5636 30 74.625 30H56.625C54.6864 30 52.625 32.0614 52.625 34V50C52.625 50.6477 52.9773 51 53.625 51ZM78.625 61C76.4503 61 74.9158 61.4445 73.625 63C72.3533 60.1134 68.9761 58 65.625 58C62.2739 58 58.8967 60.1134 57.625 63C56.3342 61.4445 54.7997 61 52.625 61C48.7477 61 45.625 64.1227 45.625 68V69C45.625 69.6477 45.9773 70 46.625 70H84.625C85.2727 70 85.625 69.6477 85.625 69V68C85.625 64.1227 82.5023 61 78.625 61Z" fill="url(#paint0_linear)"/>
<path d="M66.625 49C64.0262 49 61.625 51.3928 61.625 54C61.625 56.6072 64.0262 59 66.625 59C69.2238 59 70.625 56.6072 70.625 54C70.625 51.3928 69.2238 49 66.625 49ZM53.625 54C51.6753 54 49.625 55.045 49.625 57C49.625 58.955 51.6753 61 53.625 61C55.5747 61 56.625 58.955 56.625 57C56.625 55.045 55.5747 54 53.625 54ZM78.625 54C76.6753 54 75.625 55.045 75.625 57C75.625 58.955 76.6753 61 78.625 61C80.5747 61 82.625 58.955 82.625 57C82.625 55.045 80.5747 54 78.625 54ZM70.625 35H61.625C60.9736 35 60.625 35.3468 60.625 36C60.625 36.6532 60.9736 37 61.625 37H70.625C71.2764 37 71.625 36.6532 71.625 36C71.625 35.3468 71.2764 35 70.625 35ZM70.625 40H61.625C60.9736 40 60.625 40.3468 60.625 41C60.625 41.6532 60.9736 42 61.625 42H70.625C71.2764 42 71.625 41.6532 71.625 41C71.625 40.3468 71.2764 40 70.625 40Z" fill="white"/>
<path d="M66.625 49C64.0262 49 61.625 51.3928 61.625 54C61.625 56.6072 64.0262 59 66.625 59C69.2238 59 70.625 56.6072 70.625 54C70.625 51.3928 69.2238 49 66.625 49ZM53.625 54C51.6753 54 49.625 55.045 49.625 57C49.625 58.955 51.6753 61 53.625 61C55.5747 61 56.625 58.955 56.625 57C56.625 55.045 55.5747 54 53.625 54ZM78.625 54C76.6753 54 75.625 55.045 75.625 57C75.625 58.955 76.6753 61 78.625 61C80.5747 61 82.625 58.955 82.625 57C82.625 55.045 80.5747 54 78.625 54ZM70.625 35H61.625C60.9736 35 60.625 35.3468 60.625 36C60.625 36.6532 60.9736 37 61.625 37H70.625C71.2764 37 71.625 36.6532 71.625 36C71.625 35.3468 71.2764 35 70.625 35ZM70.625 40H61.625C60.9736 40 60.625 40.3468 60.625 41C60.625 41.6532 60.9736 42 61.625 42H70.625C71.2764 42 71.625 41.6532 71.625 41C71.625 40.3468 71.2764 40 70.625 40Z" fill="url(#paint1_linear)"/>
</g>
</g>
<defs>
<filter id="filter0_d" x="0.625" y="0" width="130" height="130" filterUnits="userSpaceOnUse" color-interpolation-filters="sRGB">
<feFlood flood-opacity="0" result="BackgroundImageFix"/>
<feColorMatrix in="SourceAlpha" type="matrix" values="0 0 0 0 0 0 0 0 0 0 0 0 0 0 0 0 0 0 127 0"/>
<feOffset dy="15"/>
<feGaussianBlur stdDeviation="15"/>
<feColorMatrix type="matrix" values="0 0 0 0 0.297865 0 0 0 0 0.358823 0 0 0 0 0.554167 0 0 0 0.07 0"/>
<feBlend mode="normal" in2="BackgroundImageFix" result="effect1_dropShadow"/>
<feBlend mode="normal" in="SourceGraphic" in2="effect1_dropShadow" result="shape"/>
</filter>
<linearGradient id="paint0_linear" x1="25.625" y1="50" x2="65.625" y2="90" gradientUnits="userSpaceOnUse">
<stop stop-color="#F4AB00"/>
<stop offset="1" stop-color="#FC5457"/>
</linearGradient>
<linearGradient id="paint1_linear" x1="34.8594" y1="48.1317" x2="58.937" y2="78.6917" gradientUnits="userSpaceOnUse">
<stop stop-color="#FBDA61" stop-opacity="0.3"/>
<stop offset="1" stop-color="#F76B1C" stop-opacity="0.7"/>
</linearGradient>
<clipPath id="clip0">
<rect width="40" height="40" fill="white" transform="translate(45.625 30)"/>
</clipPath>
</defs>
</svg>
