<svg width="36" height="36" viewBox="0 0 36 36" fill="none" xmlns="http://www.w3.org/2000/svg">
<rect width="36" height="36" rx="5" fill="#00A0E9"/>
<path d="M24.4558 5.72705H11.544C8.78336 5.72705 6.54547 7.97726 6.54547 10.7529V23.7354C6.54547 26.5108 8.78316 28.761 11.544 28.761H15.8414L17.9777 32.2027L20.1146 28.761H24.4558C27.2163 28.761 29.4546 26.5108 29.4546 23.7354V10.7526C29.4546 7.97726 27.2163 5.72705 24.4558 5.72705V5.72705Z" fill="white"/>
<path d="M15.2379 18.4987H17.125V16.6357H18.8746V18.4987H20.7615V16.6357H22.6139V14.7388H20.7615V12.9796H22.6139V11.0825H20.7615V9.21973H18.8746V11.0825H17.1252V9.21973H15.2381V11.0825H13.3853V12.9796H15.2381V14.7388H13.3853V16.6357H15.2379V18.4987ZM17.1252 12.9796H18.8746V14.7388H17.1252V12.9796Z" fill="#00A0E9"/>
<path d="M26.4057 19.123C26.2363 19.0109 26.0757 18.9554 25.927 18.938C25.2297 18.8612 24.8021 19.3282 24.4628 19.8607C24.0881 20.4483 21.9255 23.0221 18.0075 23.1207C14.0894 23.0221 11.927 20.4483 11.5521 19.8607C11.2128 19.3282 10.8001 18.862 10.0879 18.938C9.93923 18.9554 9.77884 19.0109 9.60917 19.123C9.30416 19.3248 9.18801 19.6674 9.19811 19.9063C9.19811 20.2374 9.3593 20.5446 9.3593 20.5446C9.3593 20.5446 11.8503 25.2616 17.7645 25.2616C17.8463 25.2616 17.9271 25.2606 18.0075 25.2592C18.0878 25.2606 18.1686 25.2616 18.2507 25.2616C24.1648 25.2616 26.6558 20.5446 26.6558 20.5446C26.6558 20.5446 26.795 20.3431 26.8188 19.9059C26.8297 19.609 26.7107 19.3248 26.4057 19.123Z" fill="#00A0E9"/>
<path d="M17.1251 12.9795H18.8745V14.7387H17.1251V12.9795Z" fill="white"/>
</svg>
