<svg width="36" height="36" viewBox="0 0 36 36" fill="none" xmlns="http://www.w3.org/2000/svg">
<rect width="36" height="36" rx="5" fill="#FFFA37"/>
<circle cx="18" cy="18" r="15.75" fill="#FFFA37"/>
<path d="M11.7794 16.3082L11.7797 16.3083C11.9439 16.3873 12.0762 16.4445 12.2425 16.4445C12.2956 16.4445 12.3372 16.4367 12.3656 16.4267C12.3908 16.4178 12.4031 16.4082 12.4115 16.3993C12.4192 16.3911 12.4247 16.3826 12.4295 16.3658C12.4353 16.3453 12.4395 16.3129 12.4364 16.2691C12.3875 15.5882 12.3278 14.6153 12.3278 13.9026C12.3278 13.0155 12.6596 11.6054 13.6117 10.4135C14.572 9.21153 16.1482 8.25 18.601 8.25C21.0538 8.25 22.6242 9.2116 23.5785 10.4142L22.991 10.8804L23.5785 10.4142C24.5246 11.6065 24.8497 13.0166 24.8497 13.9026C24.8497 14.6153 24.79 15.5882 24.7411 16.2691C24.738 16.3129 24.7422 16.3453 24.748 16.3658C24.7528 16.3826 24.7582 16.3911 24.766 16.3993C24.7744 16.4082 24.7866 16.4178 24.8119 16.4267C24.8402 16.4367 24.8819 16.4445 24.935 16.4445C25.1012 16.4445 25.2336 16.3873 25.3977 16.3083L25.398 16.3082L25.4178 16.2987L25.4184 16.2984L25.4282 16.2937C25.6146 16.2043 25.8508 16.091 26.1802 16.091C26.5028 16.091 26.8295 16.2186 27.0787 16.4202L26.6159 16.9922L27.0787 16.4202C27.3297 16.6233 27.5264 16.9235 27.5264 17.2731C27.5264 17.4366 27.4934 17.6376 27.3671 17.8369C27.2533 18.0167 27.1006 18.1355 26.9747 18.2169C26.6875 18.4026 26.3155 18.5246 25.9865 18.6325L25.9682 18.6385L25.968 18.6385L25.9365 18.6489L25.9365 18.6489C25.6168 18.7536 25.335 18.8501 25.1318 18.9767L24.735 18.3403L25.1318 18.9767C25.0281 19.0414 24.9564 19.1088 24.9129 19.1724C24.875 19.2279 24.8497 19.292 24.8497 19.3865C24.8497 19.3865 24.8497 19.3865 24.8497 19.3866C24.8498 19.3876 24.8502 19.3973 24.8546 19.4171C24.8594 19.4385 24.867 19.464 24.8779 19.4945C24.9009 19.5592 24.9365 19.6393 24.9844 19.7329C25.0801 19.92 25.2169 20.1445 25.3762 20.3798L24.7552 20.8003L25.3762 20.3798C25.6959 20.8519 26.0909 21.3438 26.3959 21.6371C26.6993 21.9291 27.1845 22.2813 27.6875 22.5603C27.938 22.6992 28.1886 22.8175 28.419 22.9007C28.6307 22.9771 28.8182 23.0211 28.9691 23.0276L29.1039 23.0333L29.2283 23.0857C29.2494 23.0946 29.2719 23.1049 29.2952 23.1166L29.2952 23.1166C29.332 23.1351 29.3707 23.1572 29.4093 23.1832L29.4174 23.1887L29.4174 23.1887L29.4223 23.1921L29.8024 23.4552L29.7383 23.9129C29.7334 23.9475 29.7269 23.9798 29.7192 24.0101C29.7003 24.0841 29.6732 24.149 29.6412 24.2069C29.6412 24.207 29.6412 24.207 29.6412 24.207L28.9848 23.8442C28.977 23.8583 28.9657 23.8736 28.9314 23.9116L11.7794 16.3082ZM11.7794 16.3082L11.7596 16.2987L11.759 16.2984L11.7493 16.2937C11.5628 16.2043 11.3267 16.091 10.9973 16.091C10.6747 16.091 10.348 16.2186 10.0988 16.4202L10.5515 16.9799L10.0988 16.4202C9.84774 16.6233 9.65108 16.9235 9.65108 17.2731C9.65108 17.4366 9.6841 17.6376 9.81034 17.8369C9.92414 18.0167 10.0769 18.1355 10.2027 18.2169L10.6101 17.5871M11.7794 16.3082L10.6101 17.5871M10.6101 17.5871L10.2027 18.2169C10.4899 18.4026 10.8619 18.5246 11.191 18.6325L11.2092 18.6385L11.2094 18.6385M10.6101 17.5871L11.2094 18.6385M29.4271 24.4802C29.2854 24.6327 29.0996 24.7512 28.9236 24.8427C28.7362 24.9402 28.5111 25.0321 28.2534 25.1144C27.7908 25.2623 27.261 25.3678 26.7574 25.421C26.7375 25.4816 26.7179 25.5695 26.6936 25.6842L26.6936 25.6844L26.69 25.7011L26.69 25.7012L26.6885 25.7085C26.6591 25.8469 26.623 26.017 26.5709 26.1709L26.5709 26.1709C26.5507 26.2307 26.5279 26.2886 26.5018 26.3428L26.3225 26.7162L25.911 26.7633C25.8552 26.7696 25.7903 26.7733 25.7136 26.773C25.503 26.7722 25.2502 26.7417 24.9864 26.7099L24.976 26.7087L24.9759 26.7086L24.9654 26.7074C24.9654 26.7074 24.9654 26.7074 24.9653 26.7074C24.6113 26.6647 24.2198 26.6183 23.8117 26.6183C23.0017 26.6183 22.4718 26.9644 21.7881 27.4316L21.788 27.4316L21.7499 27.4577L21.7498 27.4577L21.7476 27.4592C21.4989 27.6291 21.2286 27.8136 20.9223 27.9947C19.9462 28.5715 19.1508 28.5672 18.6635 28.5646H18.6631H18.6631L18.5765 28.5643C18.5494 28.5643 18.5211 28.5644 18.4895 28.5646C18.0026 28.5673 17.2297 28.5705 16.2552 27.9947C15.9489 27.8137 15.6786 27.6291 15.4299 27.4593L15.4277 27.4577L15.4276 27.4577L15.3895 27.4316L15.3894 27.4316C14.7056 26.9644 14.1758 26.6183 13.3658 26.6183C12.9577 26.6183 12.5662 26.6647 12.2122 26.7074C12.2122 26.7074 12.2121 26.7074 12.2121 26.7074L29.4271 24.4802ZM29.4271 24.4802L29.4428 24.4633L29.4271 24.4802ZM11.2094 18.6385L11.241 18.6489L11.241 18.6489M11.2094 18.6385L11.241 18.6489M11.241 18.6489C11.5606 18.7536 11.8425 18.8501 12.0457 18.9767C12.1494 19.0414 12.2211 19.1088 12.2646 19.1724C12.3024 19.2279 12.3278 19.292 12.3278 19.3865C12.3278 19.3857 12.3277 19.3952 12.3228 19.4171C12.3181 19.4385 12.3105 19.464 12.2996 19.4945C12.2766 19.5592 12.241 19.6393 12.1931 19.7329C12.0973 19.92 11.9606 20.1445 11.8013 20.3798C11.4816 20.8519 11.0866 21.3438 10.7816 21.6371C10.4781 21.9291 9.99294 22.2813 9.48994 22.5603C9.23943 22.6992 8.98883 22.8175 8.75845 22.9007C8.54676 22.9771 8.35925 23.0211 8.20833 23.0276L8.07352 23.0333M11.241 18.6489L8.07352 23.0333M7.88222 23.1166C7.84548 23.1351 7.8068 23.1572 7.76818 23.1832L7.76814 23.1831L7.76009 23.1887L7.75515 23.1921L7.37515 23.4551L7.43918 23.9128C7.44409 23.9479 7.45064 23.9802 7.45827 24.0101L7.88222 23.1166ZM7.88222 23.1166C7.90563 23.1049 7.92812 23.0946 7.94916 23.0857M7.88222 23.1166L7.94916 23.0857M8.07352 23.0333L7.94916 23.0857M8.07352 23.0333L7.94916 23.0857M7.45827 24.0101C7.47716 24.0841 7.50428 24.1491 7.53626 24.2069L7.45827 24.0101ZM7.72653 24.4547C7.72918 24.4575 7.73176 24.4603 7.73424 24.4629L7.53627 24.207C7.59623 24.3155 7.67616 24.4009 7.72653 24.4547ZM7.73463 24.4633L7.75037 24.4802L7.73463 24.4633ZM10.6066 26.1709L11.3169 25.9303L7.75109 24.481C7.89269 24.6331 8.07818 24.7513 8.25385 24.8427C8.44128 24.9402 8.66635 25.0321 8.9241 25.1144C9.38665 25.2623 9.91647 25.3678 10.4201 25.421C10.4399 25.4816 10.4596 25.5695 10.4839 25.6842L10.4839 25.6843L10.4874 25.701L10.4874 25.7012L10.489 25.7086C10.5184 25.847 10.5544 26.017 10.6066 26.1709Z" fill="white" stroke="black" stroke-width="1.5"/>
</svg>
