<svg width="36" height="36" viewBox="0 0 36 36" fill="none" xmlns="http://www.w3.org/2000/svg">
<rect width="36" height="36" rx="5" fill="#644382"/>
<path d="M25.9994 16.5836C26.0275 13.4052 23.2149 10.4914 19.7297 10.0885C19.6603 10.0806 19.5848 10.0685 19.5049 10.0558C19.3324 10.0283 19.1539 10 18.9739 10C18.2596 10 18.0686 10.4829 18.0184 10.771C17.9695 11.051 18.0161 11.2862 18.1567 11.4703C18.3933 11.7798 18.8095 11.8348 19.1438 11.8788C19.2418 11.8919 19.3342 11.904 19.4116 11.9207C22.543 12.5942 23.5974 13.653 24.1127 16.6412C24.1253 16.7142 24.1309 16.8042 24.137 16.8996C24.1595 17.2568 24.2063 18 25.0364 18H25.0365C25.1056 18 25.1799 17.9943 25.2572 17.9829C26.0302 17.8698 26.006 17.1905 25.9943 16.8641C25.9911 16.7722 25.9879 16.6852 25.996 16.6274C25.9982 16.6128 25.9993 16.5982 25.9994 16.5836Z" fill="white"/>
<path d="M19.0928 8.7307C19.182 8.7369 19.2663 8.74283 19.3366 8.7532C24.2786 9.48562 26.5513 11.7421 27.1812 16.542C27.1919 16.6236 27.1935 16.7231 27.1953 16.8284C27.2016 17.2034 27.2145 17.9836 28.0839 17.9997L28.1109 18C28.3835 18 28.6004 17.9208 28.7555 17.7643C29.0261 17.4915 29.0073 17.0863 28.992 16.7606C28.9883 16.6807 28.9848 16.6054 28.9857 16.5395C29.0485 11.6305 24.6392 7.17908 19.5498 7.01354C19.5287 7.01287 19.5086 7.01395 19.4882 7.01671C19.4782 7.01812 19.4597 7.01988 19.428 7.01988C19.3772 7.01988 19.3148 7.01563 19.2486 7.01132C19.1685 7.00606 19.0778 7 18.9858 7C18.1753 7 18.0212 7.55516 18.0015 7.8861C17.9561 8.65093 18.7238 8.70476 19.0928 8.7307Z" fill="white"/>
<path d="M26.6193 22.9398C26.5155 22.8611 26.4082 22.7795 26.3078 22.6991C25.7748 22.2728 25.2079 21.8799 24.6596 21.4999C24.5458 21.4211 24.432 21.3422 24.3186 21.2631C23.6162 20.7728 22.9848 20.5345 22.3882 20.5345C21.5847 20.5345 20.8841 20.9758 20.3059 21.846C20.0497 22.2318 19.7389 22.4193 19.3559 22.4193C19.1294 22.4193 18.8721 22.3551 18.5911 22.2283C16.324 21.2065 14.7051 19.6397 13.7794 17.5716C13.3319 16.572 13.477 15.9186 14.2645 15.3869C14.7118 15.0852 15.5442 14.5235 15.4853 13.4478C15.4185 12.2264 12.7071 8.55117 11.5646 8.13374C11.0809 7.95694 10.5727 7.95529 10.0514 8.12962C8.7381 8.56846 7.79565 9.33914 7.3257 10.3582C6.87156 11.3429 6.89207 12.4991 7.38502 13.7018C8.81005 17.1791 10.8136 20.2109 13.3402 22.7128C15.8132 25.1619 18.8529 27.168 22.3745 28.6753C22.6919 28.8111 23.0249 28.8851 23.268 28.9391C23.3509 28.9577 23.4224 28.9734 23.4745 28.9876C23.5032 28.9954 23.5327 28.9996 23.5624 28.9999L23.5902 29C23.5903 29 23.5902 29 23.5903 29C25.2467 29 27.2355 27.4956 27.8463 25.7804C28.3815 24.2786 27.4044 23.5363 26.6193 22.9398Z" fill="white"/>
<path d="M20.2763 13.0007C19.9603 13.0084 19.3026 13.0243 19.0719 13.6751C18.964 13.9792 18.9769 14.2433 19.1104 14.4599C19.3063 14.7778 19.6816 14.8752 20.023 14.9287C21.261 15.1217 21.8969 15.7869 22.0241 17.022C22.0831 17.5979 22.4822 18 22.9947 18H22.9947C23.0326 18 23.0713 17.9978 23.1098 17.9933C23.7261 17.922 24.0249 17.4821 23.9979 16.6857C24.0077 15.8546 23.5601 14.911 22.7988 14.1595C22.0348 13.4056 21.1139 12.981 20.2763 13.0007Z" fill="white"/>
</svg>
