<svg width="36" height="36" viewBox="0 0 36 36" fill="none" xmlns="http://www.w3.org/2000/svg">
<rect width="36" height="36" rx="5" fill="#2CD44A"/>
<path d="M25.425 19.6918L25.4145 19.7793C22.849 18.5007 22.5807 18.3304 22.2494 18.8274C22.0195 19.1715 21.3499 19.952 21.1481 20.183C20.9439 20.4105 20.7409 20.428 20.3944 20.2705C20.0444 20.0955 18.9209 19.728 17.591 18.538C16.555 17.6106 15.8597 16.4731 15.6543 16.1231C15.3125 15.5328 16.0277 15.4488 16.6786 14.2168C16.7953 13.9718 16.7358 13.7793 16.6495 13.6055C16.562 13.4305 15.8655 11.7155 15.5738 11.0318C15.2938 10.3505 15.0057 10.4369 14.7899 10.4369C14.1179 10.3785 13.6267 10.3879 13.1939 10.8382C11.3109 12.9078 11.7857 15.0428 13.3969 17.3131C16.5632 21.457 18.2501 22.22 21.3347 23.2793C22.1677 23.5441 22.9272 23.5068 23.528 23.4204C24.1977 23.3143 25.5895 22.5793 25.88 21.7568C26.1775 20.9343 26.1775 20.2518 26.09 20.0943C26.0036 19.9368 25.775 19.8493 25.425 19.6918Z" fill="white"/>
<path d="M28.9398 7.02427C19.9695 -1.64741 5.12391 4.64197 5.11808 16.8754C5.11808 19.3207 5.75856 21.7053 6.97887 23.8111L5.00024 31L12.3909 29.0727C21.6133 34.0543 32.995 27.4394 32.9997 16.8824C32.9997 13.1772 31.5531 9.69005 28.9223 7.06976L28.9398 7.02427ZM30.6688 16.8439C30.6618 25.7489 20.8864 31.3103 13.1551 26.7651L12.7351 26.5154L8.36018 27.6529L9.53266 23.4005L9.25383 22.963C4.44259 15.304 9.97015 5.29413 19.084 5.29413C22.1802 5.29413 25.0864 6.50161 27.275 8.68907C29.4624 10.8579 30.6688 13.764 30.6688 16.8439Z" fill="white"/>
</svg>
